<?xml version="1.0" standalone="no"?>
<!DOCTYPE svg PUBLIC "-//W3C//DTD SVG 20010904//EN"
 "http://www.w3.org/TR/2001/REC-SVG-20010904/DTD/svg10.dtd">
<svg version="1.0" xmlns="http://www.w3.org/2000/svg"
 width="176.000000pt" height="159.000000pt" viewBox="0 0 176.000000 159.000000"
 preserveAspectRatio="xMidYMid meet">
<metadata>
Created by potrace 1.16, written by Peter Selinger 2001-2019
</metadata>
<g transform="translate(0.000000,159.000000) scale(0.100000,-0.100000)"
fill="#000000" stroke="none">
<path d="M1430 1095 c0 -252 0 -257 20 -252 11 3 23 0 27 -5 3 -6 1 -8 -5 -4
-6 3 -13 2 -17 -4 -4 -6 -11 -8 -16 -5 -5 4 -9 -3 -9 -14 0 -11 5 -23 10 -26
12 -7 14 -45 2 -45 -4 0 -9 -11 -10 -26 -1 -14 2 -23 8 -19 6 3 10 1 10 -4 0
-6 -4 -11 -10 -11 -5 0 -10 -8 -10 -17 1 -17 1 -17 11 0 16 28 41 21 39 -10
-1 -16 -2 -47 -1 -70 1 -43 1 -43 39 -43 35 0 68 16 100 47 7 7 16 13 20 13 4
0 16 7 27 16 17 13 18 16 5 24 -10 7 -11 10 -2 10 6 0 12 5 12 10 0 6 -20 10
-45 10 l-45 0 0 45 c0 33 4 45 15 45 11 0 15 11 15 40 0 39 1 40 33 40 48 0
107 43 107 79 0 19 -6 21 -60 21 -67 0 -75 10 -30 37 30 17 39 33 20 33 -5 0
-2 9 7 20 17 20 17 19 43 -3 l25 -22 -25 29 c-14 17 -80 86 -147 155 -106 109
-123 123 -137 112 -18 -15 -22 -1 -6 15 8 8 6 15 -5 24 -13 11 -15 -14 -15
-245z"/>
<path d="M402 534 c63 -62 103 -94 112 -91 10 4 13 1 10 -7 -3 -8 15 -34 40
-59 37 -38 47 -43 56 -32 28 33 128 27 152 -9 24 -35 -5 -83 -43 -71 -16 6
-20 13 -17 36 6 36 -16 45 -42 19 -23 -23 -28 -96 -7 -123 17 -23 61 -17 85
13 16 19 23 22 32 14 9 -9 9 -18 -1 -35 -7 -13 -12 -31 -10 -38 2 -13 0 -13
-13 -2 -9 8 -16 9 -16 4 0 -5 -32 -9 -72 -9 -40 0 -66 2 -60 4 8 2 6 12 -8 29
-14 19 -20 41 -20 79 0 54 -11 68 -28 37 -12 -21 -42 -10 -49 18 -6 21 -6 21
-19 -2 -7 -13 -13 -48 -14 -76 0 -46 2 -53 20 -53 11 0 20 -6 20 -14 0 -11
-18 -15 -70 -18 -39 -2 -70 1 -70 5 0 5 -5 5 -12 1 -12 -8 -128 -14 -140 -7
-12 6 3 33 18 33 17 0 18 11 2 45 -10 22 -17 25 -60 25 -41 0 -50 -3 -57 -22
-10 -25 3 -48 25 -48 8 0 14 -7 14 -15 0 -14 -33 -21 -82 -16 -10 1 -18 0 -18
-3 0 -9 74 -75 84 -76 6 0 21 10 35 22 24 21 24 21 -2 -8 l-27 -30 28 -27 28
-27 242 0 c229 0 243 1 262 20 23 23 29 110 8 110 -6 0 -9 2 -7 5 14 13 48 -9
51 -34 l3 -26 28 29 c19 20 24 33 17 40 -14 14 -12 36 4 36 11 0 13 25 12 128
-1 124 -2 127 -23 126 -18 0 -20 3 -12 18 6 11 22 19 39 19 17 1 38 2 48 3 14
1 18 -9 20 -52 2 -37 7 -51 15 -46 8 5 8 3 0 -7 -19 -19 -16 -34 4 -18 9 8 35
14 59 15 34 0 41 -3 36 -15 -5 -17 -5 -17 56 39 l24 22 -4 -24 c-2 -15 -11
-24 -25 -26 -13 -2 -24 -9 -24 -15 -4 -32 -3 -165 1 -161 8 8 16 113 8 108 -4
-3 -8 2 -8 11 0 9 5 13 10 10 6 -3 10 3 10 15 0 12 4 19 10 15 5 -3 7 -12 4
-19 -3 -7 3 -19 12 -27 10 -8 15 -9 11 -2 -4 6 -4 13 0 16 5 2 2 2 -4 1 -13
-3 -12 9 2 53 5 14 13 20 23 17 16 -5 16 -5 1 5 -9 6 -22 24 -29 41 -12 29
-11 32 10 47 20 14 21 18 7 28 -12 9 -9 11 21 12 58 2 112 14 112 25 0 6 12
21 26 35 26 24 28 43 4 51 -7 3 -10 0 -6 -7 9 -15 -7 -14 -22 1 -9 9 -18 9
-37 0 -15 -7 -24 -8 -20 -2 4 7 -142 10 -437 10 l-443 0 97 -96z"/>
<path d="M250 390 c12 -30 36 -89 52 -132 30 -75 43 -88 81 -80 13 3 17 14 17
50 0 46 -2 50 -86 132 l-85 85 21 -55z"/>
</g>
</svg>
