<?xml version="1.0" standalone="no"?>
<!DOCTYPE svg PUBLIC "-//W3C//DTD SVG 20010904//EN"
 "http://www.w3.org/TR/2001/REC-SVG-20010904/DTD/svg10.dtd">
<svg version="1.0" xmlns="http://www.w3.org/2000/svg"
 width="275.000000pt" height="275.000000pt" viewBox="0 0 275.000000 275.000000"
 preserveAspectRatio="xMidYMid meet">
<metadata>
Created by potrace 1.16, written by Peter Selinger 2001-2019
</metadata>
<g transform="translate(0.000000,275.000000) scale(0.100000,-0.100000)"
fill="#000000" stroke="none">
<path d="M490 2050 l0 -180 175 0 175 0 0 180 0 180 -175 0 -175 0 0 -180z"/>
<path d="M1207 2224 c-4 -4 -7 -85 -7 -181 l0 -173 180 0 180 0 -2 178 -3 177
-171 3 c-93 1 -173 -1 -177 -4z"/>
<path d="M1920 2050 l0 -180 175 0 175 0 0 180 0 180 -175 0 -175 0 0 -180z"/>
<path d="M490 1535 l0 -75 890 0 890 0 0 75 0 75 -890 0 -890 0 0 -75z"/>
<path d="M490 1235 l0 -75 890 0 890 0 0 75 0 75 -890 0 -890 0 0 -75z"/>
</g>
</svg>
