<?xml version="1.0" standalone="no"?>
<!DOCTYPE svg PUBLIC "-//W3C//DTD SVG 20010904//EN"
 "http://www.w3.org/TR/2001/REC-SVG-20010904/DTD/svg10.dtd">
<svg version="1.0" xmlns="http://www.w3.org/2000/svg"
 width="164.000000pt" height="139.000000pt" viewBox="0 0 164.000000 139.000000"
 preserveAspectRatio="xMidYMid meet">
<metadata>
Created by potrace 1.16, written by Peter Selinger 2001-2019
</metadata>
<g transform="translate(0.000000,139.000000) scale(0.100000,-0.100000)"
fill="#000000" stroke="none">
<path d="M1056 1260 c-187 -27 -350 -53 -363 -59 -35 -16 -44 -52 -33 -129 5
-37 10 -72 10 -79 0 -6 -24 -17 -52 -23 -98 -23 -106 -31 -201 -187 -97 -160
-179 -321 -170 -336 4 -8 62 -79 128 -159 l119 -145 36 9 c152 42 260 154 345
358 38 92 67 125 159 185 91 59 116 93 116 157 0 55 -22 78 -74 78 -54 0 -125
-41 -213 -123 -61 -57 -96 -80 -156 -105 -92 -39 -137 -49 -137 -33 0 12 16
20 110 54 77 29 74 22 56 138 -8 57 -13 105 -11 107 6 6 769 112 773 107 2 -1
10 -47 17 -101 8 -55 17 -111 19 -125 9 -50 -6 -57 -202 -84 l-183 -26 -77
-51 c-102 -67 -120 -84 -148 -140 l-24 -48 25 0 c25 0 85 27 115 52 31 26 50
63 50 100 0 21 3 38 8 38 36 0 425 61 440 69 40 21 40 42 7 284 -31 225 -31
222 -57 247 -29 27 -34 26 -432 -30z m406 -7 c10 -9 18 -28 18 -43 0 -33 38
-25 -395 -85 -181 -25 -342 -48 -357 -51 -27 -5 -28 -4 -28 35 0 22 6 43 13
48 8 6 548 89 721 112 5 0 18 -6 28 -16z"/>
<path d="M119 424 c-52 -43 -63 -59 -52 -78 4 -8 70 -89 146 -180 87 -106 144
-166 156 -166 24 0 111 77 111 98 -1 23 -278 356 -299 360 -10 2 -38 -13 -62
-34z"/>
</g>
</svg>
