<?xml version="1.0" standalone="no"?>
<!DOCTYPE svg PUBLIC "-//W3C//DTD SVG 20010904//EN"
 "http://www.w3.org/TR/2001/REC-SVG-20010904/DTD/svg10.dtd">
<svg version="1.0" xmlns="http://www.w3.org/2000/svg"
 width="256.000000pt" height="256.000000pt" viewBox="0 0 256.000000 256.000000"
 preserveAspectRatio="xMidYMid meet">
<metadata>
Created by potrace 1.16, written by Peter Selinger 2001-2019
</metadata>
<g transform="translate(0.000000,256.000000) scale(0.100000,-0.100000)"
fill="#000000" stroke="none">
<path d="M584 2538 c-60 -19 -127 -80 -161 -147 l-33 -63 0 -241 c0 -133 -3
-259 -6 -279 l-7 -38 -67 0 c-36 0 -87 -7 -113 -16 -60 -20 -139 -91 -169
-152 -23 -46 -23 -53 -26 -412 -3 -354 -3 -367 18 -415 28 -66 63 -110 111
-141 48 -30 137 -54 200 -54 46 0 46 0 53 -38 3 -20 6 -100 6 -177 0 -126 3
-145 24 -191 30 -65 85 -120 150 -150 l51 -24 662 0 c631 0 663 1 706 19 61
26 123 84 155 145 25 49 27 59 30 234 l4 182 58 0 c80 0 177 32 227 75 25 21
55 62 73 99 l31 63 -3 369 c-3 415 -2 405 -79 489 -64 69 -107 88 -216 93
l-92 4 -3 282 -3 281 -27 51 c-34 65 -77 108 -139 139 l-48 25 -668 -1 c-418
-1 -680 -5 -699 -11z m1335 -215 l30 -28 6 -257 7 -258 -681 0 -681 0 0 251
c0 152 4 258 10 269 26 49 24 49 672 50 l608 0 29 -27z m259 -782 c69 -35 93
-122 52 -188 -54 -90 -169 -92 -227 -4 -44 66 -20 160 50 195 43 21 80 20 125
-3z m-223 -878 l-6 -408 -30 -27 -29 -28 -610 0 -609 0 -36 31 -35 31 0 404 0
404 681 0 681 0 -7 -407z"/>
<path d="M790 785 l0 -105 495 0 495 0 0 105 0 105 -495 0 -495 0 0 -105z"/>
<path d="M790 495 l0 -105 345 0 345 0 0 105 0 105 -345 0 -345 0 0 -105z"/>
</g>
</svg>
