<?xml version="1.0" standalone="no"?>
<!DOCTYPE svg PUBLIC "-//W3C//DTD SVG 20010904//EN"
 "http://www.w3.org/TR/2001/REC-SVG-20010904/DTD/svg10.dtd">
<svg version="1.0" xmlns="http://www.w3.org/2000/svg"
 width="190.000000pt" height="165.000000pt" viewBox="0 0 190.000000 165.000000"
 preserveAspectRatio="xMidYMid meet">
<metadata>
Created by potrace 1.16, written by Peter Selinger 2001-2019
</metadata>
<g transform="translate(0.000000,165.000000) scale(0.100000,-0.100000)"
fill="#000000" stroke="none">
<path d="M0 1124 l0 -525 107 74 c60 41 403 273 763 517 360 243 659 447 665
451 5 5 -333 9 -763 9 l-772 0 0 -526z"/>
<path d="M813 1097 l-813 -552 0 -123 0 -123 91 -135 c84 -126 92 -135 110
-122 10 7 397 269 859 582 l840 570 0 70 0 71 -105 158 c-101 150 -107 157
-138 156 -25 -1 -202 -116 -844 -552z m901 340 c24 -24 47 -61 54 -85 12 -39
11 -48 -7 -85 -14 -27 -38 -53 -68 -73 l-48 -31 -77 115 c-43 63 -78 118 -78
121 0 7 88 67 110 74 45 16 74 6 114 -36z m-260 -84 c4 -9 3 -19 -2 -22 -47
-31 -82 -57 -82 -63 0 -4 10 -18 23 -33 l22 -25 44 29 c25 17 48 28 53 25 18
-12 6 -35 -32 -60 -22 -15 -40 -29 -40 -32 0 -2 9 -20 21 -38 l21 -34 44 31
c41 28 74 33 74 11 0 -15 -142 -104 -150 -95 -25 28 -151 226 -146 230 11 11
131 92 137 92 4 1 10 -7 13 -16z m-125 -235 c39 -59 71 -110 71 -114 0 -10
-33 -33 -48 -34 -7 0 -49 23 -93 51 -45 28 -83 49 -84 47 -2 -2 19 -36 46 -76
42 -59 49 -75 39 -87 -7 -8 -18 -15 -24 -15 -11 0 -156 212 -156 229 0 5 11
16 25 25 24 16 27 15 111 -39 48 -31 84 -49 81 -40 -4 8 -25 42 -47 75 -22 32
-40 62 -40 66 0 11 35 33 41 26 4 -4 38 -55 78 -114z m-210 -140 c39 -59 71
-111 71 -117 0 -5 -11 -16 -25 -25 -24 -16 -27 -15 -53 3 -41 29 -142 91 -147
91 -3 0 17 -34 45 -75 27 -41 50 -78 50 -82 0 -5 -8 -13 -19 -20 -17 -11 -26
-1 -95 103 -42 62 -76 117 -76 122 0 15 56 42 66 32 11 -11 154 -100 160 -100
3 0 -18 34 -46 75 -27 41 -50 77 -50 81 0 11 35 33 41 26 4 -4 38 -55 78 -114z
m-324 -68 c3 -5 51 -46 106 -90 54 -45 99 -84 99 -88 0 -4 -9 -13 -21 -20 -18
-11 -24 -11 -40 4 -19 17 -21 17 -55 -1 -49 -26 -58 -39 -43 -66 10 -19 9 -25
-7 -36 -10 -7 -21 -13 -25 -13 -5 0 -22 45 -39 100 -17 55 -37 117 -45 139
-14 40 -14 40 18 60 36 24 43 25 52 11z m-139 -162 c8 -16 12 -38 9 -48 -5
-16 -2 -20 19 -20 48 0 80 -62 60 -115 -9 -22 -124 -99 -134 -89 -11 13 -150
223 -150 227 0 5 76 56 108 72 33 18 71 7 88 -27z m-151 -193 l75 -110 -26
-21 -26 -22 -86 54 c-47 30 -88 52 -90 49 -2 -2 19 -37 47 -77 46 -66 49 -74
34 -85 -9 -7 -20 -13 -23 -13 -4 0 -42 52 -84 116 -80 120 -80 118 -36 144 12
6 40 -6 103 -45 48 -30 87 -51 87 -49 0 3 -23 39 -51 80 -50 71 -51 75 -33 89
10 7 22 11 26 7 4 -4 41 -56 83 -117z m-232 -109 c62 -91 74 -128 55 -166 -18
-33 -75 -70 -107 -70 -37 1 -50 13 -120 118 -59 88 -62 94 -44 107 10 8 20 14
23 14 3 0 32 -42 66 -92 42 -63 68 -93 83 -95 25 -4 61 23 61 45 0 8 -27 54
-61 104 -49 73 -58 93 -48 105 21 25 35 15 92 -70z"/>
<path d="M1577 1414 c-15 -8 -25 -19 -21 -25 38 -63 107 -154 116 -154 6 0 20
12 31 27 27 36 16 87 -27 133 -36 38 -56 42 -99 19z"/>
<path d="M1750 1645 c0 -5 127 -192 142 -210 4 -5 8 41 8 103 l0 112 -75 0
c-41 0 -75 -2 -75 -5z"/>
<path d="M1062 571 c-453 -308 -826 -562 -829 -565 -4 -3 370 -6 830 -6 l837
0 0 565 c0 311 -3 565 -7 565 -5 -1 -378 -252 -831 -559z"/>
<path d="M0 107 l0 -107 70 0 c39 0 70 2 70 5 0 6 -117 184 -131 200 -5 5 -9
-37 -9 -98z"/>
</g>
</svg>
